<svg xmlns="http://www.w3.org/2000/svg" width="450" height="450"><path d="M107.20218054049688,289.344844753781L108.45964959770457,291.5746780381204L203.3445667478964,302.22133079167924L240.6213344032172,250.56584966675155L238.19634754822218,233.1795289308951L202.16412132329623,200.74241546763596L159.5192414573294,202.5791876613404Z" style="" stroke="none" fill="none" stroke-width="1px"></path><path d="M203.3445667478964,302.22133079167924L229.1009052074201,377.6350809129649L232.38428000611998,379.5534395755735L264.68073599705986,373.82014667094984L315.95474273585825,297.14254996437165L240.6213344032172,250.56584966675155Z" style="" stroke="none" fill="none" stroke-width="1px"></path><path d="M238.19634754822218,233.1795289308951L240.6213344032172,250.56584966675155L315.95474273585825,297.14254996437165L354.7748840005546,290.0666639264226L325.65818007419114,168.67774926885755Z" style="" stroke="none" fill="none" stroke-width="1px"></path><path d="M202.16412132329623,200.74241546763596L238.19634754822218,233.1795289308951L325.65818007419114,168.67774926885755L326.1500046754604,167.44217133826635L227.88782391390157,102.83866888296251Z" style="" stroke="none" fill="none" stroke-width="1px"></path><path d="M102.37856427047961,140.70908212289825L159.5192414573294,202.5791876613404L202.16412132329623,200.74241546763596L227.88782391390157,102.83866888296251L221.40157857054123,86.16475164733026L110.13246752177795,127.51964194268555Z" style="" stroke="none" fill="none" stroke-width="1px"></path><path d="M53.13596063683872,204.58222606003366L95.52260725525997,283.1547956807093L107.20218054049688,289.344844753781L159.5192414573294,202.5791876613404L102.37856427047961,140.70908212289825L85.186594733197,146.6301599447936Z" style="" stroke="none" fill="none" stroke-width="1px"></path><path d="M104.83062104777974,332.1034478192639L149.7792339534811,393.4992488517188L229.1009052074201,377.6350809129649L203.3445667478964,302.22133079167924L108.45964959770457,291.5746780381204Z" style="" stroke="none" fill="none" stroke-width="1px"></path><path d="M264.68073599705986,373.82014667094984L357.4667866483709,430.0143919900297L367.1265971183842,294.7433957894361L354.7748840005546,290.0666639264226L315.95474273585825,297.14254996437165Z" style="" stroke="none" fill="none" stroke-width="1px"></path><path d="M325.65818007419114,168.67774926885755L354.7748840005546,290.0666639264226L367.1265971183842,294.7433957894361L369.80578895949094,294.31537179207385L436.0138872946517,210.39907209838418L350.6224500848685,151.67470403025754L326.1500046754604,167.44217133826635Z" style="" stroke="none" fill="none" stroke-width="1px"></path><path d="M221.40157857054123,86.16475164733026L227.88782391390157,102.83866888296251L326.1500046754604,167.44217133826635L350.6224500848685,151.67470403025754L357.787344603601,134.85936687584712L326.6555238921277,48.567495200669356L227.61133772339872,74.49023194874977L222.3647406757928,80.97798893857605Z" style="" stroke="none" fill="none" stroke-width="1px"></path><line x1="188.0430563920648" y1="9.100464468175812" x2="278.3179271919803" y2="17.30358646241292" stroke="#efedf5" fill="#000000" stroke-width="15px"></line><line x1="188.0430563920648" y1="9.100464468175812" x2="143.41123907909991" y2="70.45652465760365" stroke="#efedf5" fill="#000000" stroke-width="15px"></line><line x1="278.3179271919803" y1="17.30358646241292" x2="379.82051764623935" y2="70.645508559775" stroke="#efedf5" fill="#000000" stroke-width="15px"></line><line x1="60.98666046485472" y1="83.37934773374084" x2="188.0430563920648" y2="9.100464468175812" stroke="#efedf5" fill="#000000" stroke-width="15px"></line><line x1="143.41123907909991" y1="70.45652465760365" x2="60.98666046485472" y2="83.37934773374084" stroke="#efedf5" fill="#000000" stroke-width="15px"></line><line x1="299.83196566014755" y1="99.50325863652743" x2="278.3179271919803" y2="17.30358646241292" stroke="#efedf5" fill="#000000" stroke-width="15px"></line><line x1="379.82051764623935" y1="70.645508559775" x2="299.83196566014755" y2="99.50325863652743" stroke="#efedf5" fill="#000000" stroke-width="15px"></line><line x1="172.60183052836967" y1="148.99647958923677" x2="143.41123907909991" y2="70.45652465760365" stroke="#efedf5" fill="#000000" stroke-width="15px"></line><line x1="299.83196566014755" y1="99.50325863652743" x2="188.0430563920648" y2="9.100464468175812" stroke="#efedf5" fill="#000000" stroke-width="15px"></line><line x1="379.82051764623935" y1="70.645508559775" x2="423.4324023103349" y2="152.1685180289541" stroke="#efedf5" fill="#000000" stroke-width="15px"></line><line x1="299.83196566014755" y1="99.50325863652743" x2="143.41123907909991" y2="70.45652465760365" stroke="#efedf5" fill="#000000" stroke-width="15px"></line><line x1="19.78377226782751" y1="164.20209283547294" x2="60.98666046485472" y2="83.37934773374084" stroke="#efedf5" fill="#000000" stroke-width="15px"></line><line x1="299.83196566014755" y1="99.50325863652743" x2="172.60183052836967" y2="148.99647958923677" stroke="#efedf5" fill="#000000" stroke-width="15px"></line><line x1="299.83196566014755" y1="99.50325863652743" x2="253.34431966501015" y2="170.21115143973546" stroke="#efedf5" fill="#000000" stroke-width="15px"></line><line x1="253.34431966501015" y1="170.21115143973546" x2="172.60183052836967" y2="148.99647958923677" stroke="#efedf5" fill="#000000" stroke-width="15px"></line><line x1="172.60183052836967" y1="148.99647958923677" x2="60.98666046485472" y2="83.37934773374084" stroke="#efedf5" fill="#000000" stroke-width="15px"></line><line x1="423.4324023103349" y1="152.1685180289541" x2="299.83196566014755" y2="99.50325863652743" stroke="#efedf5" fill="#000000" stroke-width="15px"></line><line x1="172.60183052836967" y1="148.99647958923677" x2="105.0673541428623" y2="211.36853695410292" stroke="#efedf5" fill="#000000" stroke-width="15px"></line><line x1="105.0673541428623" y1="211.36853695410292" x2="60.98666046485472" y2="83.37934773374084" stroke="#efedf5" fill="#000000" stroke-width="15px"></line><line x1="105.0673541428623" y1="211.36853695410292" x2="19.78377226782751" y2="164.20209283547294" stroke="#efedf5" fill="#000000" stroke-width="15px"></line><line x1="423.4324023103349" y1="152.1685180289541" x2="377.13690133748264" y2="219.48706891418954" stroke="#efedf5" fill="#000000" stroke-width="15px"></line><line x1="377.13690133748264" y1="219.48706891418954" x2="299.83196566014755" y2="99.50325863652743" stroke="#efedf5" fill="#000000" stroke-width="15px"></line><line x1="302.8292410062021" y1="237.31072431085488" x2="253.34431966501015" y2="170.21115143973546" stroke="#efedf5" fill="#000000" stroke-width="15px"></line><line x1="377.13690133748264" y1="219.48706891418954" x2="253.34431966501015" y2="170.21115143973546" stroke="#efedf5" fill="#000000" stroke-width="15px"></line><line x1="377.13690133748264" y1="219.48706891418954" x2="302.8292410062021" y2="237.31072431085488" stroke="#efedf5" fill="#000000" stroke-width="15px"></line><line x1="30.288302272654008" y1="251.70873799270356" x2="19.78377226782751" y2="164.20209283547294" stroke="#efedf5" fill="#000000" stroke-width="15px"></line><line x1="172.60183052836967" y1="148.99647958923677" x2="177.16059184838147" y2="254.83857354161" stroke="#efedf5" fill="#000000" stroke-width="15px"></line><line x1="105.0673541428623" y1="211.36853695410292" x2="30.288302272654008" y2="251.70873799270356" stroke="#efedf5" fill="#000000" stroke-width="15px"></line><line x1="177.16059184838147" y1="254.83857354161" x2="105.0673541428623" y2="211.36853695410292" stroke="#efedf5" fill="#000000" stroke-width="15px"></line><line x1="253.34431966501015" y1="170.21115143973546" x2="177.16059184838147" y2="254.83857354161" stroke="#efedf5" fill="#000000" stroke-width="15px"></line><line x1="423.4324023103349" y1="152.1685180289541" x2="440.8745957089628" y2="269.77469552711267" stroke="#efedf5" fill="#000000" stroke-width="15px"></line><line x1="440.8745957089628" y1="269.77469552711267" x2="377.13690133748264" y2="219.48706891418954" stroke="#efedf5" fill="#000000" stroke-width="15px"></line><line x1="302.8292410062021" y1="237.31072431085488" x2="177.16059184838147" y2="254.83857354161" stroke="#efedf5" fill="#000000" stroke-width="15px"></line><line x1="302.8292410062021" y1="237.31072431085488" x2="256.56441240783323" y2="312.13970996945784" stroke="#efedf5" fill="#000000" stroke-width="15px"></line><line x1="256.56441240783323" y1="312.13970996945784" x2="177.16059184838147" y2="254.83857354161" stroke="#efedf5" fill="#000000" stroke-width="15px"></line><line x1="41.475627393236465" y1="331.3553459195484" x2="30.288302272654008" y2="251.70873799270356" stroke="#efedf5" fill="#000000" stroke-width="15px"></line><line x1="167.31067104994568" y1="342.62287202849717" x2="177.16059184838147" y2="254.83857354161" stroke="#efedf5" fill="#000000" stroke-width="15px"></line><line x1="105.0673541428623" y1="211.36853695410292" x2="41.475627393236465" y2="331.3553459195484" stroke="#efedf5" fill="#000000" stroke-width="15px"></line><line x1="256.56441240783323" y1="312.13970996945784" x2="167.31067104994568" y2="342.62287202849717" stroke="#efedf5" fill="#000000" stroke-width="15px"></line><line x1="302.8292410062021" y1="237.31072431085488" x2="324.7835156747387" y2="357.7575559445192" stroke="#efedf5" fill="#000000" stroke-width="15px"></line><line x1="324.7835156747387" y1="357.7575559445192" x2="256.56441240783323" y2="312.13970996945784" stroke="#efedf5" fill="#000000" stroke-width="15px"></line><line x1="440.8745957089628" y1="269.77469552711267" x2="400.08589014934415" y2="363.13495931386717" stroke="#efedf5" fill="#000000" stroke-width="15px"></line><line x1="377.13690133748264" y1="219.48706891418954" x2="324.7835156747387" y2="357.7575559445192" stroke="#efedf5" fill="#000000" stroke-width="15px"></line><line x1="177.16059184838147" y1="254.83857354161" x2="41.475627393236465" y2="331.3553459195484" stroke="#efedf5" fill="#000000" stroke-width="15px"></line><line x1="167.31067104994568" y1="342.62287202849717" x2="41.475627393236465" y2="331.3553459195484" stroke="#efedf5" fill="#000000" stroke-width="15px"></line><line x1="400.08589014934415" y1="363.13495931386717" x2="377.13690133748264" y2="219.48706891418954" stroke="#efedf5" fill="#000000" stroke-width="15px"></line><line x1="400.08589014934415" y1="363.13495931386717" x2="324.7835156747387" y2="357.7575559445192" stroke="#efedf5" fill="#000000" stroke-width="15px"></line><line x1="95.98375481918355" y1="394.8421748908791" x2="41.475627393236465" y2="331.3553459195484" stroke="#efedf5" fill="#000000" stroke-width="15px"></line><line x1="167.31067104994568" y1="342.62287202849717" x2="95.98375481918355" y2="394.8421748908791" stroke="#efedf5" fill="#000000" stroke-width="15px"></line><line x1="167.31067104994568" y1="342.62287202849717" x2="185.52977363842479" y2="433.7193424377865" stroke="#efedf5" fill="#000000" stroke-width="15px"></line><line x1="324.7835156747387" y1="357.7575559445192" x2="278.29041834507643" y2="434.5253976578672" stroke="#efedf5" fill="#000000" stroke-width="15px"></line><line x1="278.29041834507643" y1="434.5253976578672" x2="256.56441240783323" y2="312.13970996945784" stroke="#efedf5" fill="#000000" stroke-width="15px"></line><line x1="185.52977363842479" y1="433.7193424377865" x2="95.98375481918355" y2="394.8421748908791" stroke="#efedf5" fill="#000000" stroke-width="15px"></line><line x1="256.56441240783323" y1="312.13970996945784" x2="185.52977363842479" y2="433.7193424377865" stroke="#efedf5" fill="#000000" stroke-width="15px"></line><line x1="278.29041834507643" y1="434.5253976578672" x2="185.52977363842479" y2="433.7193424377865" stroke="#efedf5" fill="#000000" stroke-width="15px"></line><line x1="400.08589014934415" y1="363.13495931386717" x2="278.29041834507643" y2="434.5253976578672" stroke="#efedf5" fill="#000000" stroke-width="15px"></line></svg>