<svg xmlns="http://www.w3.org/2000/svg" width="450" height="450"><path d="M109.6216368211785,280.47407577778915L111.88106128247935,284.1938937852221L200.53014486298576,300.4485206330616L240.24687052634533,253.76528786874388L239.60215553230202,243.371589071518L191.24590893737337,196.21708158025208L157.3301530487331,197.80380268359127Z" style="" transform="" stroke="#efedf5" fill="none" stroke-width="15px"></path><path d="M239.60215553230202,243.371589071518L240.24687052634533,253.76528786874388L309.0038405904884,302.329331916194L364.16038389232756,291.2700616006874L364.80303337394406,287.82983253870543L319.45434200995555,179.5540110196724L311.21252711531656,179.5876137066494Z" style="" transform="" stroke="#efedf5" fill="none" stroke-width="15px"></path><path d="M105.20753431912243,346.531922743277L150.04622286929458,390.42016884377085L215.00554625636863,370.7021509261808L200.53014486298576,300.4485206330616L111.88106128247935,284.1938937852221Z" style="" transform="" stroke="#efedf5" fill="none" stroke-width="15px"></path><path d="M270.84887682556865,373.3893257686204L358.995736107687,435.61019428600355L369.31384117083377,297.5817255274055L364.16038389232756,291.2700616006874L309.0038405904884,302.329331916194Z" style="" transform="" stroke="#efedf5" fill="none" stroke-width="15px"></path><path d="M319.45434200995555,179.5540110196724L364.80303337394406,287.82983253870543L435.3363695906042,208.8300192155096L358.4727274304038,151.22951381058115Z" style="" transform="" stroke="#efedf5" fill="none" stroke-width="15px"></path><path d="M228.67765928020452,87.07189279101145L233.03107648896167,108.74027992481798L311.21252711531656,179.5876137066494L319.45434200995555,179.5540110196724L358.4727274304038,151.22951381058115L365.860754146846,125.87388304934763L321.3566992308378,63.753679242209074L231.03039957661247,84.7133924248479Z" style="" transform="" stroke="#efedf5" fill="none" stroke-width="15px"></path><path d="M48.27690786721057,207.93550681055135L79.89897447299577,268.3264762580479L109.6216368211785,280.47407577778915L157.3301530487331,197.80380268359127L101.36126062066188,140.70282138478933L86.53525580717275,145.19759836810843Z" style="" transform="" stroke="#efedf5" fill="none" stroke-width="15px"></path><path d="M101.36126062066188,140.70282138478933L157.3301530487331,197.80380268359127L191.24590893737337,196.21708158025208L233.03107648896167,108.74027992481798L228.67765928020452,87.07189279101145L207.35226480601642,82.13780320996759L116.03697307081822,114.05028350805512Z" style="" transform="" stroke="#efedf5" fill="none" stroke-width="15px"></path><path d="M191.24590893737337,196.21708158025208L239.60215553230202,243.371589071518L311.21252711531656,179.5876137066494L233.03107648896167,108.74027992481798Z" style="" transform="" stroke="#efedf5" fill="none" stroke-width="15px"></path><path d="M200.53014486298576,300.4485206330616L215.00554625636863,370.7021509261808L232.79670895139054,380.975394682471L270.84887682556865,373.3893257686204L309.0038405904884,302.329331916194L240.24687052634533,253.76528786874388Z" style="" transform="" stroke="#efedf5" fill="none" stroke-width="15px"></path></svg>